<svg xmlns="http://www.w3.org/2000/svg" viewBox="0 0 900 260" fill="none">
  <defs>
    <linearGradient id="g" x1="25" y1="40" x2="850" y2="210" gradientUnits="userSpaceOnUse">
      <stop stop-color="#00F0FF"/><stop offset=".5" stop-color="#7A3CFF"/><stop offset="1" stop-color="#FF5DB1"/>
    </linearGradient>
    <filter id="glow"><feGaussianBlur stdDeviation="3" result="blur"/><feMerge><feMergeNode in="blur"/><feMergeNode in="SourceGraphic"/></feMerge></filter>
    <linearGradient id="gold" x1="460" y1="28" x2="565" y2="214" gradientUnits="userSpaceOnUse">
      <stop stop-color="#FFE0A8"/><stop offset=".55" stop-color="#FFC77A"/><stop offset="1" stop-color="#FF8BBF"/>
    </linearGradient>
  </defs>
  <g stroke="url(#g)" stroke-width="1.7" opacity=".8" filter="url(#glow)">
    <path d="M0 216c90-42 150 40 245-8 96-48 147 38 238-2 98-43 153 27 251-17 62-28 111-10 166 5"/>
    <path d="M0 230c91-42 150 40 245-8 96-48 147 38 238-2 98-43 153 27 251-17 62-28 111-10 166 5" opacity=".5"/>
    <path d="M115 180V91l16-26 16 26v89M131 65V20M100 122h62M104 150h54"/>
    <path d="M686 179V108m-26 71v-41l26-48 26 48v41m-52-41h52m-40-19h28"/>
    <path d="M742 179V97m-20 82v-29l20-41 20 41v29m-40-29h40"/>
    <path d="M357 151c-25-6-32-40-8-54 20-12 37 7 29 25-8 18-32 22-45 4 13-18 37-14 45 4 8 18-9 37-29 25 24 14 17 48 8 54"/>
    <path d="M439 130c-12-19-6-37 12-37s24 18 12 37c12 19 6 37-12 37s-24-18-12-37Z"/>
  </g>
  <g stroke="#FFC77A" stroke-width="1.3" opacity=".72">
    <path d="M510 65v74m-17-54h34m-28 19h22m-17 15h12m-6 20v41m-9 0h18"/>
    <circle cx="510" cy="57" r="4"/><path d="M507 188c0 9 6 13 6 22m-6-22c0 9-6 13-6 22"/>
  </g>
  <!-- Lantern, lotus and temple roof: deliberately line-only so the motif
       can sit over live member imagery without competing with it. -->
  <g stroke="url(#gold)" stroke-width="1.25" stroke-linecap="round" stroke-linejoin="round" opacity=".7">
    <path d="M545 72c12 0 20 11 20 25 0 17-9 30-20 30s-20-13-20-30c0-14 8-25 20-25Z"/>
    <path d="M525 89h40m-40 18h40m-20 20v31m-8 0h16m-23-73 15-18 15 18"/>
    <path d="M266 188c10-18 25-25 39-30-5 14-16 26-31 33 19-4 34 1 45 10-20 7-39 5-53-6-14 11-33 13-53 6 11-9 26-14 45-10-15-7-26-19-31-33 14 5 29 12 39 30Z"/>
    <path d="M772 183h80m-71 0v-16l31-32 31 32v16m-47 0v-24h32v24m-65-23 49-43 49 43m-78-50 29-27 29 27"/>
  </g>
  <g fill="#FFC77A" opacity=".65"><circle cx="266" cy="195" r="2"/><circle cx="545" cy="67" r="2"/><circle cx="812" cy="110" r="2"/></g>
</svg>
